<svg width="216" height="126" viewBox="0 0 216 126" fill="none" xmlns="http://www.w3.org/2000/svg">
<g clip-path="url(#clip0_1720_2)">
<mask id="mask0_1720_2" style="mask-type:luminance" maskUnits="userSpaceOnUse" x="0" y="0" width="216" height="126">
<path d="M216 0H0V126H216V0Z" fill="white"/>
</mask>
<g mask="url(#mask0_1720_2)">
<g opacity="0.999174">
<path d="M183 43C186.866 43 190 46.134 190 50C190 53.866 186.866 57 183 57H205C208.866 57 212 60.134 212 64C212 67.866 208.866 71 205 71H186C182.134 71 179 74.134 179 78C179 81.866 182.134 85 186 85H192C195.866 85 199 88.134 199 92C199 95.866 195.866 99 192 99H140C139.485 99 138.983 98.944 138.5 98.839C138.017 98.944 137.515 99 137 99H46C42.134 99 39 95.866 39 92C39 88.134 42.134 85 46 85H7C3.134 85 0 81.866 0 78C0 74.134 3.134 71 7 71H47C50.866 71 54 67.866 54 64C54 60.134 50.866 57 47 57H22C18.134 57 15 53.866 15 50C15 46.134 18.134 43 22 43H183ZM209 85C212.866 85 216 88.134 216 92C216 95.866 212.866 99 209 99C205.134 99 202 95.866 202 92C202 88.134 205.134 85 209 85Z" fill="#ECECEC"/>
</g>
<mask id="mask1_1720_2" style="mask-type:luminance" maskUnits="userSpaceOnUse" x="0" y="0" width="216" height="126">
<path d="M0 0H216V126H0V0Z" fill="white"/>
</mask>
<g mask="url(#mask1_1720_2)">
<path d="M147.495 19.875V35.165H78.125V19.875H147.495Z" fill="#F2F2F2"/>
<path d="M79 20H146L140 29L148 35H77L86 29L79 20Z" fill="#F2F2F2"/>
<path d="M78 34V22C78 20.895 78.804 20 79.795 20H146.205C147.196 20 148 20.895 148 22V34" stroke="#D9D9D9" stroke-width="2.5"/>
<path d="M79.061 20.9961L86.167 28.0121C86.56 28.4001 86.565 29.0321 86.177 29.4261C86.11 29.4931 86.033 29.5521 85.95 29.5991L77.999 34.0001" stroke="#D9D9D9" stroke-width="2.5" stroke-linecap="round"/>
<path d="M147.108 21.0703L140.306 28.0073C139.919 28.4023 139.926 29.0353 140.32 29.4213C140.386 29.4863 140.46 29.5413 140.541 29.5853L148.635 34.0003" stroke="#D9D9D9" stroke-width="2.5" stroke-linecap="round"/>
<path d="M76.0059 77.215V37C76.0059 35.343 77.3659 34 79.0429 34H148.523C149.615 34 150.5 34.895 150.5 36V109C150.5 111.209 148.729 113 146.545 113H79.9609C77.7769 113 76.0059 111.209 76.0059 109V94.055V90V77.215Z" fill="white"/>
<path d="M76.0269 89.556V76.908M76.0059 85.897V81.393M76.0059 77.214V37C76.0059 35.343 77.3659 34 79.0429 34H148.523C149.615 34 150.5 34.895 150.5 36V109C150.5 111.209 148.729 113 146.545 113H79.9609C77.7769 113 76.0059 111.209 76.0059 109V94.055V90V77.214Z" stroke="#D9D9D9" stroke-width="2.5" stroke-linecap="round"/>
<path d="M96.5 55C98.433 55 100 53.433 100 51.5C100 49.567 98.433 48 96.5 48C94.567 48 93 49.567 93 51.5C93 53.433 94.567 55 96.5 55Z" fill="white"/>
<path d="M96.5 55C98.433 55 100 53.433 100 51.5C100 49.567 98.433 48 96.5 48C94.567 48 93 49.567 93 51.5C93 53.433 94.567 55 96.5 55Z" stroke="#D9D9D9" stroke-width="2.5"/>
<path d="M129.5 55C131.433 55 133 53.433 133 51.5C133 49.567 131.433 48 129.5 48C127.567 48 126 49.567 126 51.5C126 53.433 127.567 55 129.5 55Z" fill="white"/>
<path d="M129.5 55C131.433 55 133 53.433 133 51.5C133 49.567 131.433 48 129.5 48C127.567 48 126 49.567 126 51.5C126 53.433 127.567 55 129.5 55Z" stroke="#D9D9D9" stroke-width="2.5"/>
<path d="M129 55C129 63.837 121.837 71 113 71C104.163 71 97 63.837 97 55" stroke="#D9D9D9" stroke-width="2.5" stroke-linecap="round"/>
</g>
<path d="M76.0059 77.215V37C76.0059 35.343 77.3659 34 79.0429 34H148.523C149.615 34 150.5 34.895 150.5 36V109C150.5 111.209 148.729 113 146.545 113H79.9609C77.7769 113 76.0059 111.209 76.0059 109V94.055V90V77.215Z" fill="white"/>
<path d="M76.0269 89.556V76.908M76.0059 85.897V81.393M76.0059 77.214V37C76.0059 35.343 77.3659 34 79.0429 34H148.523C149.615 34 150.5 34.895 150.5 36V109C150.5 111.209 148.729 113 146.545 113H79.9609C77.7769 113 76.0059 111.209 76.0059 109V94.055V90V77.214Z" stroke="#D9D9D9" stroke-width="2.5" stroke-linecap="round"/>
<path d="M96.5 55C98.433 55 100 53.433 100 51.5C100 49.567 98.433 48 96.5 48C94.567 48 93 49.567 93 51.5C93 53.433 94.567 55 96.5 55Z" fill="white"/>
<path d="M96.5 55C98.433 55 100 53.433 100 51.5C100 49.567 98.433 48 96.5 48C94.567 48 93 49.567 93 51.5C93 53.433 94.567 55 96.5 55Z" stroke="#D9D9D9" stroke-width="2.5"/>
<path d="M129.5 55C131.433 55 133 53.433 133 51.5C133 49.567 131.433 48 129.5 48C127.567 48 126 49.567 126 51.5C126 53.433 127.567 55 129.5 55Z" fill="white"/>
<path d="M129.5 55C131.433 55 133 53.433 133 51.5C133 49.567 131.433 48 129.5 48C127.567 48 126 49.567 126 51.5C126 53.433 127.567 55 129.5 55Z" stroke="#D9D9D9" stroke-width="2.5"/>
<path d="M129 55C129 63.837 121.837 71 113 71C104.163 71 97 63.837 97 55" stroke="#D9D9D9" stroke-width="2.5" stroke-linecap="round"/>
</g>
</g>
<defs>
<clipPath id="clip0_1720_2">
<rect width="216" height="126" fill="white"/>
</clipPath>
</defs>
</svg>
